# xmcd
#
# Track frame offsets: 
#        150
#        12800
#        25512
#        38022
#        48875
#        59845
#        70170
#        83407
#        94640
#        106670
#        118680
#        128687
#        139157
#        151635
#        163512
#        176282
#        188805
#        200610
#        211430
#        221297
#
# Disc length: 3116 seconds
#
# Revision: 4
# Processed by: cddbd v1.5.2PL0 Copyright (c) Steve Scherf et al.
# Submitted via: ExactAudioCopy v0.99pb4
#
DISCID=f90c2a14
DTITLE=Hank Snow - The Essential Hank Snow
DYEAR=1997
DGENRE=Country
TTITLE0=Rhumba Boogie
TTITLE1=I'm Movin' On
TTITLE2=The Golden Rocket
TTITLE3=Unwanted Sign Upon Your Heart
TTITLE4=Music Makin' Mama From Memphis
TTITLE5=The Gold Rush Is Over
TTITLE6=I Dont' Hurt Anymore
TTITLE7=(Now and Then, There's) A Fool Such As I
TTITLE8=The Gal Who Invented Kissin'
TTITLE9=I Went To Your Wedding [alternate take]
TTITLE10=Would You Mind
TTITLE11=Lady's Man
TTITLE12=Yellow Roses
TTITLE13=Miller's Cave
TTITLE14=Beggar To A King
TTITLE15=I've Been Everywhere
TTITLE16=Ninety Miles An Hour (Down a Dead End Street)
TTITLE17=Let Me Go, Lover
TTITLE18=The Wishing Well (Down in the Well)
TTITLE19=Hello Love
EXTD=
EXTT0=
EXTT1=
EXTT2=
EXTT3=
EXTT4=
EXTT5=
EXTT6=
EXTT7=
EXTT8=
EXTT9=
EXTT10=
EXTT11=
EXTT12=
EXTT13=
EXTT14=
EXTT15=
EXTT16=
EXTT17=
EXTT18=
EXTT19=
PLAYORDER=
